<?xml version="1.0" encoding="UTF-8" standalone="no"?>
<svg
   xmlns:dc="http://purl.org/dc/elements/1.1/"
   xmlns:cc="http://creativecommons.org/ns#"
   xmlns:rdf="http://www.w3.org/1999/02/22-rdf-syntax-ns#"
   xmlns:svg="http://www.w3.org/2000/svg"
   xmlns="http://www.w3.org/2000/svg"
   width="35.220512mm"
   height="60.00161mm"
   viewBox="0 0 77.485125 132.00354"
   version="1.1"
   id="svg8">
  <defs
     id="defs2" />
  <metadata
     id="metadata5">
    <rdf:RDF>
      <cc:Work
         rdf:about="">
        <dc:format>image/svg+xml</dc:format>
        <dc:type
           rdf:resource="http://purl.org/dc/dcmitype/StillImage" />
        <dc:title></dc:title>
      </cc:Work>
    </rdf:RDF>
  </metadata>
  <g
     id="layer1"
     transform="translate(-39.309524,-102.80954)">
    <g
       id="g880"
       transform="matrix(0.69256759,0,0,1.0837891,12.085022,-8.6143166)">
      <rect
         style="fill:#0000ff;fill-rule:evenodd;stroke-width:0.255855"
         id="rect12"
         width="111.88095"
         height="92.604172"
         x="39.309532"
         y="117.55061" />
      <ellipse
         style="fill:#afafde;fill-opacity:1;fill-rule:evenodd;stroke-width:0.262801"
         id="path10"
         cx="95.250008"
         cy="117.55061"
         rx="55.5625"
         ry="14.741072" />
      <path
         style="fill:#8e86e0;fill-opacity:1;stroke-width:1.42857"
         d="m 148.71766,618.92857 c 0.0804,-96.44643 0.6541,-173.20912 1.27484,-170.58376 4.96236,20.988 54.14501,39.225 130.0075,48.20696 26.12829,3.09353 104.1418,4.3283 134.61524,2.13064 86.43369,-6.23336 149.82127,-26.75941 155.38816,-50.31751 0.62299,-2.63641 1.19851,74.11724 1.27894,170.56367 l 0.14623,175.35714 H 360 148.57143 Z"
         id="path51"
         transform="scale(0.26458333)" />
      <path
         style="opacity:0.98;fill:#afafde;fill-opacity:1;stroke-width:0.380408"
         d="m 87.027281,224.4214 c -23.368614,-0.83682 -43.238694,-5.83733 -46.927502,-11.80979 -2.589209,-4.19212 1.199043,-8.07277 11.145363,-11.4172 10.793917,-3.62944 25.710125,-5.49259 43.973001,-5.49259 18.225397,0 33.021727,1.82351 43.877737,5.40752 9.95343,3.28603 13.9123,7.30801 11.32177,11.50227 -3.57402,5.7866 -23.71509,11.01092 -45.01322,11.67581 -3.36914,0.10517 -7.159426,0.24005 -8.422857,0.29971 -1.263428,0.0597 -5.74286,-0.0149 -9.954292,-0.16573 z"
         id="path35" />
    </g>
  </g>
</svg>
