<?xml version="1.0" encoding="UTF-8"?>
<svg width="103.67mm" height="99.242mm" inkscape:version="1.0.1 (c497b03c, 2020-09-10)" sodipodi:docname="normal parametrization of dual parallel body_new.svg" version="1.1" viewBox="0 0 72.569 69.47" xmlns="http://www.w3.org/2000/svg" xmlns:cc="http://creativecommons.org/ns#" xmlns:dc="http://purl.org/dc/elements/1.1/" xmlns:inkscape="http://www.inkscape.org/namespaces/inkscape" xmlns:rdf="http://www.w3.org/1999/02/22-rdf-syntax-ns#" xmlns:sodipodi="http://sodipodi.sourceforge.net/DTD/sodipodi-0.dtd">
 <style/>
 <defs>
  <marker id="Arrow1Mstart" overflow="visible" inkscape:isstock="true" inkscape:stockid="Arrow1Mstart" orient="auto">
   <path transform="matrix(.4 0 0 .4 4 0)" d="m0 0 5-5-17.5 5 17.5 5z" fill="#f00" fill-rule="evenodd" stroke="#f00" stroke-width="1pt"/>
  </marker>
 </defs>
 <sodipodi:namedview id="base" bordercolor="#666666" borderopacity="1.0" fit-margin-bottom="0" fit-margin-left="0" fit-margin-right="0" fit-margin-top="0" inkscape:bbox-nodes="true" inkscape:bbox-paths="true" inkscape:current-layer="layer2" inkscape:cx="79.964975" inkscape:cy="175.2987" inkscape:document-rotation="0" inkscape:document-units="mm" inkscape:pageopacity="0.0" inkscape:pageshadow="2" inkscape:snap-bbox="true" inkscape:snap-bbox-edge-midpoints="true" inkscape:snap-bbox-midpoints="true" inkscape:snap-global="false" inkscape:window-height="855" inkscape:window-maximized="0" inkscape:window-width="1440" inkscape:window-x="0" inkscape:window-y="23" inkscape:zoom="1.4163702" pagecolor="#ffffff" scale-x="0.7" showgrid="false"/>
 <metadata>
  <rdf:RDF>
   <cc:Work rdf:about="">
    <dc:format>image/svg+xml</dc:format>
    <dc:type rdf:resource="http://purl.org/dc/dcmitype/StillImage"/>
    <dc:title/>
   </cc:Work>
  </rdf:RDF>
 </metadata>
 <g transform="translate(-18.257 -20.85)" inkscape:groupmode="layer" inkscape:label="sum">
  <g fill="#fea">
   <path d="m21.856 83.98s2.525 0.24594 3.4344 0.3357c0.90939 0.08976 2.2878 0.22845 3.1201 0.31128 0.83231 0.08283 2.1064 0.21009 2.8786 0.28572 0.77216 0.07564 1.9617 0.19135 2.6867 0.2594 0.7251 0.06806 1.8511 0.171 2.5391 0.23117 0.68802 0.06017 1.761 0.1505 2.4197 0.20257 0.65871 0.05207 1.6916 0.12905 2.3278 0.1728 0.63616 0.04377 1.6382 0.10742 2.2572 0.14267 0.61898 0.03525 1.5979 0.08488 2.2042 0.11139 0.60625 0.0265 1.5679 0.06201 2.1652 0.07973 0.59743 0.01773 1.5481 0.03912 2.1405 0.04807 0.59235 0.0089 1.5384 0.01636 2.129 0.0164 0.59058 4.2e-5 1.5353-0.0071 2.1275-0.01602 0.59224-0.0089 1.5433-0.03067 2.1409-0.04845 0.59754-0.01777 1.5598-0.05328 2.166-0.07973 0.60621-0.02645 1.5845-0.0758 2.2034-0.111 0.61891-0.03519 1.621-0.09892 2.2572-0.14268 0.6362-0.04376 1.6694-0.12073 2.3281-0.1728 0.65869-0.05207 1.7314-0.14238 2.4193-0.20255 0.68786-0.06017 1.8133-0.16313 2.5383-0.23119 0.72502-0.06806 1.915-0.18377 2.6871-0.2594 0.77211-0.07563 2.0457-0.20289 2.8778-0.28572 0.83208-0.08283 2.2101-0.22157 3.1193-0.31128 0.9092-0.08971 3.4336-0.33532 3.4336-0.33532l-30.297-30.304z" opacity=".85"/>
   <path transform="matrix(.35278 0 0 -.35278 -11.839 99.783)" d="m95.519 216.6s-0.69716-7.1575-0.9516-9.7354c-0.25444-2.5778-0.64757-6.485-0.88237-8.8443-0.23479-2.3593-0.59554-5.971-0.80991-8.1598-0.2144-2.1888-0.54242-5.5606-0.73532-7.6159-0.19292-2.0554-0.48473-5.2472-0.65529-7.1974-0.17056-1.9503-0.4266-4.9918-0.57422-6.859-0.14761-1.8672-0.3658-4.7952-0.48983-6.5984-0.12406-1.8033-0.30451-4.6436-0.40442-6.3983-0.09992-1.7546-0.2406-4.5295-0.31575-6.248-0.07512-1.7185-0.17577-4.4443-0.226-6.1377-0.05025-1.6935-0.1109-4.3883-0.13626-6.0675-0.02535-1.6791-0.04637-4.3609-0.04648-6.0349-1.2e-4 -1.6741 0.02006-4.3519 0.04541-6.0306 0.02536-1.6788 0.08693-4.3747 0.13733-6.0686 0.05038-1.6938 0.15103-4.4214 0.226-6.1399 0.07499-1.7184 0.21488-4.4915 0.31465-6.2458 0.09976-1.7544 0.28039-4.5949 0.40445-6.3983 0.12405-1.8034 0.34222-4.7323 0.48984-6.5994 0.14761-1.8672 0.40361-4.908 0.57417-6.8579 0.17057-1.9498 0.46242-5.1401 0.65533-7.1953 0.19292-2.0552 0.52092-5.4283 0.73532-7.617 0.21437-2.1887 0.57512-5.799 0.80992-8.1576 0.23479-2.3587 0.62807-6.2649 0.88236-8.8422s0.95052-9.7332 0.95052-9.7332l85.901 85.88z" opacity=".85"/>
   <path transform="matrix(.35278 0 0 -.35278 -11.839 99.783)" d="m267.32 216.59s-7.155 0.6972-9.7332 0.9516c-2.5782 0.2545-6.489 0.6476-8.8486 0.8824s-5.9691 0.5956-8.1577 0.8099c-2.1885 0.2144-5.5608 0.5424-7.6159 0.7353-2.0552 0.193-5.2463 0.4848-7.1964 0.6553-1.9501 0.1706-4.9919 0.4266-6.8589 0.5743-1.867 0.1476-4.7941 0.3658-6.5973 0.4898-1.8033 0.124-4.6446 0.3045-6.3994 0.4044s-4.5294 0.2406-6.248 0.3158c-1.7186 0.0751-4.4453 0.1757-6.1388 0.226-1.6936 0.0502-4.3883 0.1109-6.0674 0.1362-1.6792 0.0254-4.361 0.0464-6.035 0.0465-1.6741 1e-4 -4.3519-0.0201-6.0306-0.0454-1.6787-0.0254-4.3748-0.0869-6.0685-0.1373-1.6938-0.0504-4.4205-0.1511-6.1388-0.226-1.7184-0.075-4.4914-0.2149-6.2459-0.3147s-4.5958-0.2804-6.3994-0.4044c-1.8036-0.1241-4.7323-0.3423-6.5994-0.4899-1.8672-0.1476-4.9081-0.4036-6.8579-0.5742-1.9499-0.1705-5.1403-0.4625-7.1953-0.6553s-5.4273-0.5198-7.6159-0.7342-5.7989-0.5761-8.1577-0.811c-2.3588-0.235-6.2658-0.6281-8.8432-0.8824s-9.7332-0.9505-9.7332-0.9505l85.88-85.901z" opacity=".85"/>
   <path transform="matrix(.35278 0 0 -.35278 -11.839 99.783)" d="m267.32 44.796s0.6962 7.1542 0.9505 9.7321c0.2543 2.5779 0.6475 6.4881 0.8823 8.8476s0.5956 5.9691 0.8099 8.1576c0.2144 2.1886 0.5425 5.5608 0.7354 7.6159 0.1929 2.0552 0.4847 5.2459 0.6552 7.1963 0.1706 1.9504 0.4266 4.9934 0.5743 6.8612 0.1476 1.8677 0.3658 4.7971 0.4898 6.6005 0.1241 1.8034 0.3045 4.643 0.4044 6.3972 0.0999 1.7544 0.2406 4.5286 0.3158 6.2469 0.0751 1.7184 0.1757 4.4442 0.226 6.1377 0.0502 1.6936 0.1109 4.3892 0.1362 6.0686 0.0254 1.6793 0.0464 4.361 0.0465 6.035 1e-4 1.6739-0.0202 4.3509-0.0454 6.0294-0.0252 1.6786-0.0859 4.3745-0.1363 6.0686-0.0503 1.694-0.1519 4.4225-0.227 6.1409-0.0752 1.7185-0.2149 4.4906-0.3147 6.2448-0.0997 1.7542-0.2802 4.5949-0.4044 6.3983s-0.3433 4.7323-0.4909 6.5995c-0.1477 1.8672-0.4027 4.9079-0.5731 6.8579-0.1705 1.95-0.4625 5.1412-0.6554 7.1963-0.1929 2.0552-0.5209 5.4274-0.7353 7.6159-0.2144 2.1886-0.5751 5.7981-0.8099 8.1577s-0.6281 6.2715-0.8824 8.8486-0.9505 9.7256-0.9505 9.7256l-85.901-85.881z" opacity=".85"/>
  </g>
  <rect x="27.16" y="28.676" width="50.001" height="50.001" fill="#000080"/>
  <circle cx="51.974" cy="54.17" r=".875" fill="#ff0"/>
  <g fill="none" stroke="#000" stroke-width=".26458px">
   <path d="m21.952 23.372c10.448-1.1956 20.895-2.3912 30.996-2.3899 10.101 0.0012 19.856 1.1992 29.611 2.3972" inkscape:original-d="m 21.952043,23.372182 c 10.4476,-1.195299 20.895124,-2.390884 31.342573,-3.586755 9.755288,1.198305 19.509749,2.396276 29.264538,3.594055" inkscape:path-effect="#path-effect1668" sodipodi:nodetypes="ccc"/>
   <path d="m21.858 23.372c-1.1655 9.7852-2.331 19.57-2.3311 29.671s1.1651 20.515 2.3303 30.93" inkscape:original-d="m 21.857549,23.372182 c -1.165195,9.785229 -2.330679,19.570395 -3.496451,29.355497 1.165517,10.415649 2.330699,20.83041 3.495684,31.245511" inkscape:path-effect="#path-effect2288" sodipodi:nodetypes="ccc"/>
   <path d="m82.465 23.379c1.0069 9.4363 2.0138 18.873 2.0126 28.973-0.0012 10.1-1.0105 20.864-2.0198 31.628" inkscape:original-d="m 82.46466,23.37945 c 1.007145,9.436324 2.014048,18.872595 3.02071,28.308813 -1.009062,10.764692 -2.018325,21.52845 -3.02791,32.292558" inkscape:path-effect="#path-effect2276" sodipodi:nodetypes="ccc"/>
   <path d="m21.857 83.973c10.322 1.1668 20.644 2.3336 30.744 2.3349 10.1 0.0012 19.978-1.163 29.857-2.3273" inkscape:original-d="m 21.85679,83.97319 c 10.32187,1.167062 20.643661,2.333881 30.965374,3.500456 9.878864,-1.164042 19.756896,-2.328281 29.635263,-3.492856" inkscape:path-effect="#path-effect2282" sodipodi:nodetypes="ccc"/>
  </g>
 </g>
 <g transform="translate(1.1372)" inkscape:groupmode="layer" inkscape:label="point 1">
  <ellipse cx="48.772" cy="3.1595" rx=".7413" ry=".7413" fill="#f00" opacity=".85" stroke="#000" stroke-width=".30046"/>
 </g>
 <g transform="translate(1.1372)" inkscape:groupmode="layer" inkscape:label="radial point">
  <path d="m32.667 33.275 15.957-30.035" fill="none" stroke="#f00" stroke-dasharray="1.01049, 0.336829" stroke-width=".33683"/>
  <ellipse cx="46.16" cy="7.6922" rx=".7413" ry=".7413" fill="#f00" opacity=".85" stroke="#000" stroke-width=".30046"/>
 </g>
 <g transform="translate(1.1372)" inkscape:groupmode="layer" inkscape:label="normal direction">
  <path d="m43.518 1.1506 0.05551 6.6121" fill="none" marker-start="url(#Arrow1Mstart)" stroke="#f00" stroke-width=".28623" sodipodi:nodetypes="cc"/>
  <text x="-1.4383897" y="68.781158" font-family="sans-serif" font-size="3.3338px" stroke-width=".18521" style="line-height:1.25" xml:space="preserve"><tspan x="-1.4383897" y="68.781158" font-size="3.3338px" stroke-width=".18521" sodipodi:role="line">parametrization according to normal vector</tspan></text>
 </g>
</svg>
