<?xml version="1.0" encoding="UTF-8" standalone="no"?>
<svg
   xmlns:dc="http://purl.org/dc/elements/1.1/"
   xmlns:cc="http://creativecommons.org/ns#"
   xmlns:rdf="http://www.w3.org/1999/02/22-rdf-syntax-ns#"
   xmlns:svg="http://www.w3.org/2000/svg"
   xmlns="http://www.w3.org/2000/svg"
   xmlns:sodipodi="http://sodipodi.sourceforge.net/DTD/sodipodi-0.dtd"
   xmlns:inkscape="http://www.inkscape.org/namespaces/inkscape"
   width="103.67041mm"
   height="99.242455mm"
   viewBox="0 0 72.569289 69.469722"
   version="1.1"
   id="svg8"
   inkscape:version="1.0.1 (c497b03c, 2020-09-10)"
   sodipodi:docname="normal parametrization of dual parallel body.svg">
  <style
     id="style922" />
  <defs
     id="defs2">
    <marker
       style="overflow:visible"
       id="Arrow1Mstart"
       refX="0"
       refY="0"
       orient="auto"
       inkscape:stockid="Arrow1Mstart"
       inkscape:isstock="true">
      <path
         transform="matrix(0.4,0,0,0.4,4,0)"
         style="fill:#ff0000;fill-opacity:1;fill-rule:evenodd;stroke:#ff0000;stroke-width:1pt;stroke-opacity:1"
         d="M 0,0 5,-5 -12.5,0 5,5 Z"
         id="path950" />
    </marker>
    <inkscape:path-effect
       effect="bspline"
       id="path-effect2288"
       is_visible="true"
       lpeversion="1"
       weight="33.333333"
       steps="2"
       helper_size="0"
       apply_no_weight="true"
       apply_with_weight="true"
       only_selected="false" />
    <inkscape:path-effect
       effect="bspline"
       id="path-effect2282"
       is_visible="true"
       lpeversion="1"
       weight="33.333333"
       steps="2"
       helper_size="0"
       apply_no_weight="true"
       apply_with_weight="true"
       only_selected="false" />
    <inkscape:path-effect
       effect="bspline"
       id="path-effect2276"
       is_visible="true"
       lpeversion="1"
       weight="33.333333"
       steps="2"
       helper_size="0"
       apply_no_weight="true"
       apply_with_weight="true"
       only_selected="false" />
    <inkscape:path-effect
       effect="bspline"
       id="path-effect1668"
       is_visible="true"
       lpeversion="1"
       weight="33.333333"
       steps="2"
       helper_size="0"
       apply_no_weight="true"
       apply_with_weight="true"
       only_selected="false" />
  </defs>
  <sodipodi:namedview
     id="base"
     pagecolor="#ffffff"
     bordercolor="#666666"
     borderopacity="1.0"
     inkscape:pageopacity="0.0"
     inkscape:pageshadow="2"
     inkscape:zoom="1.4163702"
     inkscape:cx="79.964975"
     inkscape:cy="175.2987"
     inkscape:document-units="mm"
     inkscape:current-layer="layer2"
     inkscape:document-rotation="0"
     showgrid="false"
     inkscape:window-width="1440"
     inkscape:window-height="855"
     inkscape:window-x="0"
     inkscape:window-y="23"
     inkscape:window-maximized="0"
     inkscape:snap-bbox="true"
     inkscape:bbox-paths="true"
     inkscape:bbox-nodes="true"
     inkscape:snap-bbox-edge-midpoints="true"
     inkscape:snap-bbox-midpoints="true"
     fit-margin-top="0"
     fit-margin-left="0"
     fit-margin-right="0"
     fit-margin-bottom="0"
     scale-x="0.7"
     inkscape:snap-global="false" />
  <metadata
     id="metadata5">
    <rdf:RDF>
      <cc:Work
         rdf:about="">
        <dc:format>image/svg+xml</dc:format>
        <dc:type
           rdf:resource="http://purl.org/dc/dcmitype/StillImage" />
        <dc:title></dc:title>
      </cc:Work>
    </rdf:RDF>
  </metadata>
  <g
     inkscape:groupmode="layer"
     id="g2301"
     inkscape:label="sum"
     style="display:inline"
     transform="translate(-18.256944,-20.849963)">
    <path
       d="m 21.856454,83.980063 c 0,0 2.525006,0.245942 3.434432,0.335703 0.909391,0.08976 2.287764,0.228448 3.120073,0.31128 0.832308,0.08283 2.106436,0.210093 2.878596,0.285718 0.77216,0.07564 1.961656,0.191354 2.68672,0.259405 0.725099,0.06806 1.851095,0.171002 2.539082,0.231171 0.688023,0.06017 1.760997,0.150495 2.419703,0.202572 0.658707,0.05207 1.69164,0.129046 2.327769,0.172801 0.636164,0.04377 1.638159,0.107425 2.257178,0.142671 0.618984,0.03525 1.597907,0.08488 2.204155,0.111389 0.606249,0.0265 1.567851,0.06201 2.165244,0.07973 0.59743,0.01773 1.548095,0.03912 2.14048,0.04807 0.592349,0.0089 1.538428,0.01636 2.128978,0.0164 0.590585,4.2e-5 1.535254,-0.0071 2.127462,-0.01602 0.592243,-0.0089 1.543297,-0.03067 2.140867,-0.04845 0.597535,-0.01777 1.559771,-0.05328 2.16602,-0.07973 0.606213,-0.02645 1.584501,-0.0758 2.203379,-0.111001 0.618914,-0.03519 1.620979,-0.09892 2.257182,-0.142681 0.636203,-0.04376 1.66945,-0.120728 2.328136,-0.172805 0.658692,-0.05207 1.731447,-0.142384 2.419307,-0.202554 0.687864,-0.06017 1.81332,-0.163131 2.538338,-0.231186 0.725015,-0.06806 1.914991,-0.183769 2.687109,-0.259404 0.77211,-0.07563 2.045747,-0.20289 2.877834,-0.285722 0.832082,-0.08283 2.210109,-0.221569 3.119313,-0.311277 0.909203,-0.08971 3.433649,-0.335322 3.433649,-0.335322 L 52.160769,53.676889 Z"
       style="display:inline;opacity:0.85;fill:#ffeeaa;fill-opacity:1;fill-rule:nonzero;stroke:none;stroke-width:0.353;stroke-miterlimit:4;stroke-dasharray:none;stroke-opacity:1"
       id="path2293" />
    <path
       d="m 95.51861,216.5969 c 0,0 -0.69716,-7.1575 -0.9516,-9.7354 -0.25444,-2.5778 -0.64757,-6.485 -0.88237,-8.8443 -0.23479,-2.3593 -0.59554,-5.971 -0.80991,-8.1598 -0.2144,-2.1888 -0.54242,-5.5606 -0.73532,-7.6159 -0.19292,-2.0554 -0.48473,-5.2472 -0.65529,-7.1974 -0.17056,-1.9503 -0.4266,-4.9918 -0.57422,-6.859 -0.14761,-1.8672 -0.3658,-4.7952 -0.48983,-6.5984 -0.12406,-1.8033 -0.30451,-4.6436 -0.40442,-6.3983 -0.09992,-1.7546 -0.2406,-4.5295 -0.31575,-6.248 -0.07512,-1.7185 -0.17577,-4.4443 -0.226,-6.1377 -0.05025,-1.6935 -0.1109,-4.3883 -0.13626,-6.0675 -0.02535,-1.6791 -0.04637,-4.3609 -0.04648,-6.0349 -1.2e-4,-1.6741 0.02006,-4.3519 0.04541,-6.0306 0.02536,-1.6788 0.08693,-4.3747 0.13733,-6.0686 0.05038,-1.6938 0.15103,-4.4214 0.226,-6.1399 0.07499,-1.7184 0.21488,-4.4915 0.31465,-6.2458 0.09976,-1.7544 0.28039,-4.5949 0.40445,-6.39831 0.12405,-1.80341 0.34222,-4.7323 0.48984,-6.59944 0.14761,-1.86716 0.40361,-4.90804 0.57417,-6.85788 0.17057,-1.94985 0.46242,-5.14012 0.65533,-7.19529 0.19292,-2.05516 0.52092,-5.42832 0.73532,-7.617 0.21437,-2.18866 0.57512,-5.79897 0.80992,-8.15764 0.23479,-2.35866 0.62807,-6.26488 0.88236,-8.84215 0.25429,-2.57727 0.95052,-9.73318 0.95052,-9.73318 l 85.90094,85.88039 z"
       style="display:inline;opacity:0.85;fill:#ffeeaa;fill-opacity:1;fill-rule:nonzero;stroke:none;stroke-width:1.00063;stroke-miterlimit:4;stroke-dasharray:none;stroke-opacity:1"
       id="path1057"
       transform="matrix(0.35277777,0,0,-0.35277777,-11.839293,99.782754)" />
    <path
       d="m 267.3194,216.5936 c 0,0 -7.155,0.6972 -9.7332,0.9516 -2.5782,0.2545 -6.489,0.6476 -8.8486,0.8824 -2.3596,0.2348 -5.9691,0.5956 -8.1577,0.8099 -2.1885,0.2144 -5.5608,0.5424 -7.6159,0.7353 -2.0552,0.193 -5.2463,0.4848 -7.1964,0.6553 -1.9501,0.1706 -4.9919,0.4266 -6.8589,0.5743 -1.867,0.1476 -4.7941,0.3658 -6.5973,0.4898 -1.8033,0.124 -4.6446,0.3045 -6.3994,0.4044 -1.7548,0.0999 -4.5294,0.2406 -6.248,0.3158 -1.7186,0.0751 -4.4453,0.1757 -6.1388,0.226 -1.6936,0.0502 -4.3883,0.1109 -6.0674,0.1362 -1.6792,0.0254 -4.361,0.0464 -6.035,0.0465 -1.6741,1e-4 -4.3519,-0.0201 -6.0306,-0.0454 -1.6787,-0.0254 -4.3748,-0.0869 -6.0685,-0.1373 -1.6938,-0.0504 -4.4205,-0.1511 -6.1388,-0.226 -1.7184,-0.075 -4.4914,-0.2149 -6.2459,-0.3147 -1.7545,-0.0998 -4.5958,-0.2804 -6.3994,-0.4044 -1.8036,-0.1241 -4.7323,-0.3423 -6.5994,-0.4899 -1.8672,-0.1476 -4.9081,-0.4036 -6.8579,-0.5742 -1.9499,-0.1705 -5.1403,-0.4625 -7.1953,-0.6553 -2.055,-0.1928 -5.4273,-0.5198 -7.6159,-0.7342 -2.1886,-0.2144 -5.7989,-0.5761 -8.1577,-0.811 -2.3588,-0.235 -6.2658,-0.6281 -8.8432,-0.8824 -2.5774,-0.2543 -9.73319,-0.9505 -9.73319,-0.9505 l 85.88039,-85.9009 z"
       style="display:inline;opacity:0.85;fill:#ffeeaa;fill-opacity:1;fill-rule:nonzero;stroke:none;stroke-opacity:1"
       id="path1055"
       transform="matrix(0.35277777,0,0,-0.35277777,-11.839293,99.782754)" />
    <path
       d="m 267.3173,44.79611 c 0,0 0.6962,7.15425 0.9505,9.73213 0.2543,2.57786 0.6475,6.48813 0.8823,8.84755 0.2348,2.35942 0.5956,5.96909 0.8099,8.15764 0.2144,2.18855 0.5425,5.56077 0.7354,7.61593 0.1929,2.05515 0.4847,5.2459 0.6552,7.19634 0.1706,1.95045 0.4266,4.99339 0.5743,6.86116 0.1476,1.86773 0.3658,4.79709 0.4898,6.60049 0.1241,1.80345 0.3045,4.64295 0.4044,6.39725 0.0999,1.7544 0.2406,4.5286 0.3158,6.2469 0.0751,1.7184 0.1757,4.4442 0.226,6.1377 0.0502,1.6936 0.1109,4.3892 0.1362,6.0686 0.0254,1.6793 0.0464,4.361 0.0465,6.035 10e-5,1.6739 -0.0202,4.3509 -0.0454,6.0294 -0.0252,1.6786 -0.0859,4.3745 -0.1363,6.0686 -0.0503,1.694 -0.1519,4.4225 -0.227,6.1409 -0.0752,1.7185 -0.2149,4.4906 -0.3147,6.2448 -0.0997,1.7542 -0.2802,4.5949 -0.4044,6.3983 -0.1242,1.8034 -0.3433,4.7323 -0.4909,6.5995 -0.1477,1.8672 -0.4027,4.9079 -0.5731,6.8579 -0.1705,1.95 -0.4625,5.1412 -0.6554,7.1963 -0.1929,2.0552 -0.5209,5.4274 -0.7353,7.6159 -0.2144,2.1886 -0.5751,5.7981 -0.8099,8.1577 -0.2348,2.3596 -0.6281,6.2715 -0.8824,8.8486 -0.2543,2.5771 -0.9505,9.7256 -0.9505,9.7256 l -85.9009,-85.8814 z"
       style="display:inline;opacity:0.85;fill:#ffeeaa;fill-opacity:1;fill-rule:nonzero;stroke:none;stroke-opacity:1"
       id="path1053"
       transform="matrix(0.35277777,0,0,-0.35277777,-11.839293,99.782754)" />
    <rect
       style="display:inline;opacity:1;fill:#000080;stroke:none;stroke-width:0.352999;stroke-miterlimit:4;stroke-dasharray:none;stroke-opacity:1"
       id="rect2297"
       width="50.000607"
       height="50.000607"
       x="27.160425"
       y="28.676197" />
    <circle
       style="opacity:1;fill:#ffff00;stroke:none;stroke-width:0.726381;stroke-miterlimit:4;stroke-dasharray:none;stroke-opacity:1"
       id="circle2299"
       cx="51.973598"
       cy="54.169643"
       r="0.87500006" />
    <path
       style="display:inline;fill:none;stroke:#000000;stroke-width:0.264583px;stroke-linecap:butt;stroke-linejoin:miter;stroke-opacity:1"
       d="m 21.952043,23.372182 c 10.447567,-1.19559 20.895091,-2.391175 30.99649,-2.389927 10.101399,0.0012 19.85586,1.199219 29.610621,2.397227"
       id="path1666"
       inkscape:path-effect="#path-effect1668"
       inkscape:original-d="m 21.952043,23.372182 c 10.4476,-1.195299 20.895124,-2.390884 31.342573,-3.586755 9.755288,1.198305 19.509749,2.396276 29.264538,3.594055"
       sodipodi:nodetypes="ccc" />
    <path
       style="display:inline;fill:none;stroke:#000000;stroke-width:0.264583px;stroke-linecap:butt;stroke-linejoin:miter;stroke-opacity:1"
       d="m 21.857549,23.372182 c -1.165487,9.785194 -2.330971,19.57036 -2.331069,29.670766 -9.8e-5,10.100406 1.165085,20.515167 2.330302,30.930242"
       id="path2286"
       inkscape:path-effect="#path-effect2288"
       inkscape:original-d="m 21.857549,23.372182 c -1.165195,9.785229 -2.330679,19.570395 -3.496451,29.355497 1.165517,10.415649 2.330699,20.83041 3.495684,31.245511"
       sodipodi:nodetypes="ccc" />
    <path
       style="display:inline;fill:none;stroke:#000000;stroke-width:0.264583px;stroke-linecap:butt;stroke-linejoin:miter;stroke-opacity:1"
       d="m 82.46466,23.37945 c 1.006912,9.436349 2.013815,18.87262 2.012588,28.973049 -0.0012,10.100429 -1.010489,20.864187 -2.019788,31.628322"
       id="path2274"
       inkscape:path-effect="#path-effect2276"
       inkscape:original-d="m 82.46466,23.37945 c 1.007145,9.436324 2.014048,18.872595 3.02071,28.308813 -1.009062,10.764692 -2.018325,21.52845 -3.02791,32.292558"
       sodipodi:nodetypes="ccc" />
    <path
       style="display:inline;fill:none;stroke:#000000;stroke-width:0.264583px;stroke-linecap:butt;stroke-linejoin:miter;stroke-opacity:1"
       d="m 21.85679,83.97319 c 10.321896,1.166831 20.643687,2.333649 30.743945,2.334886 10.100259,0.0012 19.978291,-1.163003 29.856692,-2.327286"
       id="path2280"
       inkscape:path-effect="#path-effect2282"
       inkscape:original-d="m 21.85679,83.97319 c 10.32187,1.167062 20.643661,2.333881 30.965374,3.500456 9.878864,-1.164042 19.756896,-2.328281 29.635263,-3.492856"
       sodipodi:nodetypes="ccc" />
  </g>
  <g
     inkscape:groupmode="layer"
     id="layer1"
     inkscape:label="point 1"
     style="display:inline"
     transform="translate(1.1372452)">
    <ellipse
       style="display:inline;opacity:0.85;fill:#ff0000;stroke:#000000;stroke-width:0.300457"
       id="path903"
       cx="48.771584"
       cy="3.159487"
       rx="0.74129671"
       ry="0.74129695" />
  </g>
  <g
     inkscape:groupmode="layer"
     id="layer2"
     inkscape:label="radial point"
     style="display:inline"
     transform="translate(1.1372452)">
    <path
       style="fill:none;stroke:#ff0000;stroke-width:0.336829;stroke-linecap:butt;stroke-linejoin:miter;stroke-miterlimit:4;stroke-dasharray:1.01049, 0.336829;stroke-dashoffset:0;stroke-opacity:1"
       d="M 32.667229,33.274613 48.624212,3.2397292"
       id="path908" />
    <ellipse
       style="display:inline;opacity:0.85;fill:#ff0000;stroke:#000000;stroke-width:0.300457"
       id="path903-3"
       cx="46.159676"
       cy="7.6921949"
       rx="0.74129671"
       ry="0.74129695" />
  </g>
  <g
     inkscape:groupmode="layer"
     id="layer3"
     inkscape:label="normal direction"
     transform="translate(1.1372452)"
     style="display:inline">
    <path
       style="fill:none;stroke:#ff0000;stroke-width:0.286226;stroke-linecap:butt;stroke-linejoin:miter;stroke-miterlimit:4;stroke-dasharray:none;stroke-opacity:1;marker-start:url(#Arrow1Mstart)"
       d="M 43.51789,1.1505834 43.5734,7.7626458"
       id="path930"
       sodipodi:nodetypes="cc" />
    <text
       xml:space="preserve"
       style="font-size:3.33375px;line-height:1.25;font-family:sans-serif;stroke-width:0.185208"
       x="-1.4383897"
       y="68.781158"
       id="text920"><tspan
         sodipodi:role="line"
         id="tspan918"
         x="-1.4383897"
         y="68.781158"
         style="font-size:3.33375px;stroke-width:0.185208">parametrization according to normal vector</tspan></text>
  </g>
</svg>
